<svg width="108" height="31" viewBox="0 0 108 31" fill="none" xmlns="http://www.w3.org/2000/svg">
<path d="M10.7244 8.62216V10.8239H-2.80142e-06V8.62216H10.7244ZM3.35227 30.4403V5.42613C3.35227 4.25189 3.62216 3.26231 4.16193 2.45738C4.71117 1.65246 5.42613 1.04166 6.30682 0.624996C7.1875 0.208329 8.12026 -4.29153e-06 9.10511 -4.29153e-06C9.76799 -4.29153e-06 10.3172 0.056814 10.7528 0.170451C11.1979 0.274617 11.5483 0.378784 11.804 0.482951L11.0653 2.69886C10.8759 2.64204 10.6439 2.57575 10.3693 2.5C10.0947 2.42424 9.74905 2.38636 9.33238 2.38636C8.2339 2.38636 7.38636 2.69413 6.78977 3.30966C6.19318 3.92519 5.89488 4.80587 5.89488 5.9517L5.88068 30.4403H3.35227ZM22.5523 30.8949C20.6678 30.8949 19.0011 30.4167 17.5523 29.4602C16.1129 28.5038 14.986 27.1828 14.1716 25.4972C13.3572 23.8021 12.95 21.8466 12.95 19.6307C12.95 17.3958 13.3572 15.4309 14.1716 13.7358C14.986 12.0312 16.1129 10.7055 17.5523 9.75852C19.0011 8.80208 20.6678 8.32386 22.5523 8.32386C24.4367 8.32386 26.0987 8.80208 27.5381 9.75852C28.9775 10.715 30.1044 12.0407 30.9187 13.7358C31.7426 15.4309 32.1545 17.3958 32.1545 19.6307C32.1545 21.8466 31.7473 23.8021 30.933 25.4972C30.1186 27.1828 28.9869 28.5038 27.5381 29.4602C26.0987 30.4167 24.4367 30.8949 22.5523 30.8949ZM22.5523 28.5795C24.0674 28.5795 25.3506 28.1723 26.4017 27.358C27.4528 26.5436 28.2483 25.4593 28.7881 24.1051C29.3373 22.7509 29.6119 21.2595 29.6119 19.6307C29.6119 18.0019 29.3373 16.5057 28.7881 15.142C28.2483 13.7784 27.4528 12.6847 26.4017 11.8608C25.3506 11.0369 24.0674 10.625 22.5523 10.625C21.0466 10.625 19.7634 11.0369 18.7028 11.8608C17.6517 12.6847 16.8515 13.7784 16.3023 15.142C15.7625 16.5057 15.4926 18.0019 15.4926 19.6307C15.4926 21.2595 15.7625 22.7509 16.3023 24.1051C16.8515 25.4593 17.6517 26.5436 18.7028 27.358C19.754 28.1723 21.0371 28.5795 22.5523 28.5795ZM39.9874 1.34943V30.4403H36.6351V1.34943H39.9874ZM45.3273 30.4403V8.62216H48.6795V30.4403H45.3273ZM47.0318 4.98579C46.3784 4.98579 45.815 4.76325 45.3415 4.31818C44.8775 3.8731 44.6455 3.33807 44.6455 2.71307C44.6455 2.08807 44.8775 1.55303 45.3415 1.10795C45.815 0.662876 46.3784 0.440338 47.0318 0.440338C47.6852 0.440338 48.2439 0.662876 48.708 1.10795C49.1814 1.55303 49.4182 2.08807 49.4182 2.71307C49.4182 3.33807 49.1814 3.8731 48.708 4.31818C48.2439 4.76325 47.6852 4.98579 47.0318 4.98579ZM67.4996 21.2642V8.62216H72.6416V30.4403H67.6558V26.5625H67.4285C66.9361 27.7841 66.1265 28.7831 64.9996 29.5597C63.8821 30.3362 62.5043 30.7244 60.866 30.7244C59.4361 30.7244 58.1719 30.4072 57.0734 29.7727C55.9844 29.1288 55.1321 28.196 54.5166 26.9744C53.9011 25.7434 53.5933 24.2566 53.5933 22.5142V8.62216H58.7354V21.7187C58.7354 23.1013 59.1142 24.1998 59.8717 25.0142C60.6293 25.8286 61.6236 26.2358 62.8547 26.2358C63.6123 26.2358 64.3462 26.0511 65.0564 25.6818C65.7666 25.3125 66.349 24.7633 66.8035 24.0341C67.2676 23.2955 67.4996 22.3722 67.4996 21.2642ZM77.1293 30.4403V8.62216H82.044V12.3295H82.2997C82.7543 11.0795 83.5071 10.1042 84.5582 9.40341C85.6094 8.69318 86.8641 8.33807 88.3224 8.33807C89.7997 8.33807 91.045 8.69791 92.0582 9.41761C93.081 10.1278 93.8007 11.0985 94.2173 12.3295H94.4446C94.9276 11.1174 95.7419 10.1515 96.8878 9.43182C98.0431 8.70265 99.4115 8.33807 100.993 8.33807C103 8.33807 104.639 8.97253 105.908 10.2415C107.177 11.5104 107.811 13.3617 107.811 15.7955V30.4403H102.655V16.5909C102.655 15.2367 102.295 14.2472 101.575 13.6222C100.856 12.9877 99.9749 12.6705 98.9332 12.6705C97.6927 12.6705 96.7221 13.0587 96.0213 13.8352C95.33 14.6023 94.9844 15.6013 94.9844 16.8324V30.4403H89.9418V16.3778C89.9418 15.2509 89.6009 14.3513 88.919 13.679C88.2467 13.0066 87.366 12.6705 86.277 12.6705C85.5383 12.6705 84.866 12.8598 84.2599 13.2386C83.6539 13.608 83.1709 14.1335 82.8111 14.8153C82.4512 15.4877 82.2713 16.2737 82.2713 17.1733V30.4403H77.1293Z" fill="black"/>
</svg>
